<svg width="256" height="256" viewBox="0 0 256 256" fill="none" xmlns="http://www.w3.org/2000/svg">
<path d="M137.824 256C111.369 256 84.9965 247.454 62.9126 230.485C52.8029 222.701 43.9776 213.392 36.7061 202.787C32.1898 196.218 33.8886 187.239 40.4972 182.749C47.1058 178.26 56.1382 179.949 60.6545 186.518C66.2272 194.611 72.9394 201.737 80.6667 207.667C112.819 232.38 156.987 233.677 190.589 210.88C197.198 206.391 206.23 208.079 210.746 214.649C215.263 221.218 213.564 230.197 206.955 234.686C185.99 248.916 161.897 255.98 137.845 255.98L137.824 256Z" fill="#F0BD39"/>
<path d="M63.2225 243.027C60.115 243.027 56.9661 242.039 54.3144 239.979C12.2596 207.421 -3.77509 152.127 14.4141 102.353C18.7853 90.4089 25.021 79.206 32.9348 69.0946C37.8654 62.8136 46.96 61.681 53.2786 66.5822C59.5971 71.4835 60.7365 80.524 55.8059 86.805C49.7567 94.5482 44.9919 103.074 41.6565 112.197C27.7763 150.171 40.0199 192.388 72.1307 217.223C78.4492 222.125 79.5886 231.165 74.6581 237.446C71.7992 241.091 67.5316 243.006 63.2018 243.006L63.2225 243.027Z" fill="#E73A6E"/>
<path d="M14.5186 116.275C12.8198 116.275 11.1004 115.986 9.42233 115.348C1.92291 112.547 -1.88896 104.248 0.928501 96.7932C19.6356 47.1836 67.9053 15.449 121.147 17.8585C133.929 18.4351 146.525 21.0093 158.603 25.4986C166.102 28.2994 169.914 36.5985 167.097 44.0533C164.279 51.5082 155.93 55.2974 148.431 52.4967C139.191 49.0576 129.579 47.1012 119.821 46.6481C79.2788 44.8153 42.341 69.0332 28.0673 106.905C25.892 112.691 20.3607 116.275 14.4772 116.275H14.5186Z" fill="#53C1E5"/>
<path d="M223.425 144.281C223.052 144.281 222.659 144.281 222.265 144.24C214.289 143.622 208.323 136.682 208.944 128.733C209.711 118.951 208.944 109.21 206.686 99.799C197.239 60.5066 163.637 31.9641 123.074 28.7927C115.098 28.1749 109.132 21.2349 109.753 13.2858C110.375 5.35732 117.398 -0.573602 125.353 0.0442024C178.491 4.20408 222.514 41.5812 234.902 93.0855C237.885 105.442 238.88 118.21 237.865 130.998C237.264 138.556 230.925 144.281 223.425 144.281Z" fill="#46B38B"/>
<path d="M159.825 239.113C153.341 239.113 147.436 234.747 145.779 228.219C143.811 220.496 148.534 212.671 156.303 210.714C165.874 208.305 174.907 204.495 183.172 199.347C217.604 177.868 234.052 137.093 224.108 97.8827C222.161 90.1601 226.864 82.3346 234.633 80.3782C242.401 78.4424 250.274 83.1171 252.242 90.8397C265.272 142.22 243.707 195.64 198.586 223.771C187.751 230.525 175.922 235.55 163.409 238.68C162.228 238.989 161.026 239.113 159.846 239.113H159.825Z" fill="#0052A3"/>
<path d="M190.589 210.902C176.812 220.251 161.254 225.544 145.489 226.841C145.489 226.944 144.183 228.921 144.204 229.024C144.266 229.395 146.172 234.831 146.276 235.202C147.933 241.73 154.293 241.38 160.777 241.38C161.958 241.38 165.812 241.689 166.992 241.38C179.505 238.25 191.376 231.66 202.211 224.905C206.25 222.393 207.266 219.716 210.497 216.668L210.912 214.979C210.912 214.979 210.808 214.794 210.746 214.691C206.23 208.122 197.197 206.433 190.589 210.922V210.902Z" fill="#F0BD39"/>
</svg>
